<svg version="1.1" id="Layer_1" xmlns="http://www.w3.org/2000/svg" xmlns:xlink="http://www.w3.org/1999/xlink" x="0px" y="0px"
	 width="100%" viewBox="0 0 933 512" enable-background="new 0 0 933 512" xml:space="preserve">
<path fill="#FEFEFE" opacity="1.000000" stroke="none" 
	d="
M612.000000,513.000000 
	C408.000000,513.000000 204.500000,513.000000 1.000000,513.000000 
	C1.000000,342.333344 1.000000,171.666672 1.000000,1.000000 
	C312.000000,1.000000 623.000000,1.000000 934.000000,1.000000 
	C934.000000,171.666672 934.000000,342.333344 934.000000,513.000000 
	C826.833313,513.000000 719.666687,513.000000 612.000000,513.000000 
M347.367126,410.608154 
	C347.367126,408.161224 347.367126,405.714325 347.367126,403.000366 
	C360.116272,403.000366 372.264832,402.911804 384.407593,403.137360 
	C385.620880,403.159882 387.383301,404.860962 387.900665,406.173309 
	C392.102142,416.830872 396.054810,427.586334 400.107513,438.302795 
	C405.738373,453.192505 411.390289,468.074249 416.978333,482.814697 
	C434.145782,482.814697 450.915497,482.814697 468.236938,482.814697 
	C456.268860,453.120117 444.440765,423.772888 432.714661,394.678711 
	C436.768616,391.340881 440.758759,388.590332 444.069092,385.179932 
	C447.397064,381.751465 450.514832,377.938049 452.914520,373.821075 
	C462.719666,356.999359 463.727081,338.853729 460.162750,320.169556 
	C456.857758,302.844666 447.533081,289.970612 431.470154,282.407318 
	C421.058929,277.505188 409.887115,275.849579 398.454163,275.842957 
	C366.802155,275.824585 335.150116,275.833099 303.498108,275.846863 
	C302.061127,275.847504 300.624207,276.002777 299.126801,276.089508 
	C299.126801,345.152313 299.126801,413.871582 299.126801,482.734802 
	C315.259705,482.734802 331.163055,482.734802 347.367188,482.734802 
	C347.367188,458.840820 347.367188,435.210236 347.367126,410.608154 
M623.738892,367.548218 
	C623.738892,364.432068 623.738892,361.315887 623.738892,357.802856 
	C595.554932,357.802856 567.955444,357.802856 540.080200,357.802856 
	C540.080200,344.825653 540.080200,332.257904 540.080200,319.064880 
	C570.947754,319.064880 601.647583,319.064880 632.380005,319.064880 
	C632.380005,304.352631 632.380005,290.266510 632.380005,276.150879 
	C585.179199,276.150879 538.278625,276.150879 491.335205,276.150879 
	C491.335205,345.201080 491.335205,413.934723 491.335205,482.703796 
	C538.507446,482.703796 585.403259,482.703796 632.429810,482.703796 
	C632.429810,468.311127 632.429810,454.216034 632.429810,439.458374 
	C601.489075,439.458374 570.789429,439.458374 539.995667,439.458374 
	C539.995667,426.353699 539.995667,413.913666 539.995667,400.949280 
	C567.908569,400.949280 595.631714,400.949280 623.738892,400.949280 
	C623.738892,389.796173 623.738892,379.164886 623.738892,367.548218 
M116.211113,82.803055 
	C104.205154,110.035583 102.973930,138.261826 109.172096,166.928711 
	C113.746941,188.087616 122.907761,207.296951 140.208282,220.846130 
	C176.529556,249.291718 216.806046,251.464127 257.787567,233.497269 
	C284.630554,221.728943 296.890930,197.959183 300.972961,169.164749 
	C283.776062,169.164749 267.127014,169.090042 250.482254,169.324387 
	C249.309753,169.340897 247.500504,171.462311 247.122162,172.902954 
	C244.600754,182.503937 239.830505,190.487000 230.945984,195.294617 
	C210.294495,206.469589 179.028183,201.478760 166.145828,176.532913 
	C155.562912,156.039764 154.644241,134.284851 159.636978,112.317535 
	C165.692291,85.675179 182.196228,72.129860 208.362473,71.590767 
	C226.408234,71.218987 243.021790,79.601318 247.262405,99.630379 
	C247.515518,100.825851 249.914703,102.360504 251.341705,102.388451 
	C262.836761,102.613556 274.338104,102.514877 285.837555,102.515060 
	C290.761078,102.515137 295.684631,102.515068 300.917145,102.515068 
	C300.542450,100.213776 300.312164,98.592606 300.011719,96.984535 
	C294.455017,67.245331 278.399536,45.935692 249.801682,34.876293 
	C231.523605,27.807779 212.522736,26.657379 193.263245,28.945211 
	C158.331223,33.094776 132.091080,49.919044 116.211113,82.803055 
M695.522461,54.016846 
	C686.780029,62.416805 679.747742,72.041794 674.986816,83.218903 
	C661.026489,115.993118 660.635559,149.300842 672.556030,182.545441 
	C681.777771,208.263443 699.373352,226.737122 724.982544,236.849075 
	C745.645325,245.007858 767.135010,245.828659 788.877380,242.461121 
	C807.813782,239.528168 824.590088,232.142426 837.878357,217.911438 
	C850.584290,204.303879 857.224670,188.018906 859.436340,169.391022 
	C841.531616,169.391022 824.097595,169.391022 806.564697,169.391022 
	C805.977844,171.639099 805.532776,173.735962 804.882874,175.767227 
	C801.728943,185.623779 795.782837,193.038513 786.026123,197.057938 
	C764.714905,205.837387 734.093994,199.677338 722.457642,172.048935 
	C715.520020,155.576813 714.664490,138.445663 716.611938,121.046135 
	C717.866089,109.840424 721.277954,99.247681 728.120850,90.065414 
	C740.371216,73.627113 757.413940,69.453644 776.530518,72.384064 
	C793.335327,74.960091 803.440308,85.211197 806.391235,102.269852 
	C824.015320,102.269852 841.446106,102.269852 858.790039,102.269852 
	C858.999023,101.724487 859.213013,101.421196 859.210876,101.119453 
	C859.206116,100.456169 859.125549,99.788193 859.017944,99.131622 
	C854.065796,68.915199 838.348938,46.893429 809.567322,35.268127 
	C790.094482,27.402767 769.726501,26.586723 749.136841,29.282038 
	C728.980347,31.920654 711.032898,39.526638 695.522461,54.016846 
M364.414459,77.956535 
	C346.075439,131.596909 327.736420,185.237274 309.247620,239.315735 
	C326.891632,239.315735 343.674896,239.315735 360.756104,239.315735 
	C363.956573,228.652115 367.304871,218.048798 370.261871,207.337463 
	C371.268341,203.691711 372.786987,202.366043 376.726624,202.410736 
	C396.549652,202.635666 416.377533,202.612991 436.201294,202.425049 
	C439.874115,202.390244 441.313232,203.494247 442.294342,207.064316 
	C445.279877,217.927933 448.762115,228.655045 451.935333,239.056091 
	C469.326660,239.056091 486.180756,239.056091 503.413330,239.056091 
	C479.739441,169.898148 456.246674,101.269218 432.702026,32.488819 
	C415.752899,32.488819 399.100677,32.422203 382.451843,32.628887 
	C381.258636,32.643700 379.477051,34.440571 379.004883,35.775303 
	C374.130768,49.552879 369.470093,63.405949 364.414459,77.956535 
M123.535370,483.000885 
	C136.286560,483.000885 149.037766,483.000885 162.227539,483.000885 
	C162.227539,455.927002 162.227539,429.535858 162.227539,403.000793 
	C180.328751,403.000793 198.003555,403.581940 215.624451,402.855469 
	C238.277985,401.921509 256.836212,392.814087 268.378174,372.356140 
	C276.398804,358.139679 277.497650,342.616425 275.663513,326.794922 
	C273.811859,310.822327 267.870819,296.770142 254.276932,287.219238 
	C243.202820,279.438690 230.413223,276.186005 217.056961,276.066711 
	C183.571655,275.767609 150.082611,275.882568 116.595062,275.846161 
	C115.635963,275.845123 114.676682,276.009308 113.495102,276.116638 
	C113.495102,345.065063 113.495102,413.786102 113.495102,483.000885 
	C116.649857,483.000885 119.600662,483.000885 123.535370,483.000885 
M801.380066,287.064270 
	C790.388184,279.755463 778.073608,276.248199 765.091370,276.106110 
	C731.106323,275.734131 697.115540,275.891785 663.127014,275.862671 
	C662.351562,275.862030 661.575867,276.150696 660.963501,276.272095 
	C660.963501,345.256226 660.963501,413.975372 660.963501,482.656372 
	C677.176086,482.656372 693.069885,482.656372 709.242737,482.656372 
	C709.242737,456.039062 709.242737,429.763672 709.242737,402.999268 
	C711.136536,402.999268 712.753296,402.999237 714.370056,402.999237 
	C730.531555,402.999207 746.693481,403.068756 762.854553,402.982971 
	C787.515625,402.852020 809.863586,388.230225 818.648621,366.099701 
	C824.999817,350.100189 825.079895,333.589508 821.050232,317.019135 
	C818.128113,305.003143 812.074524,294.911621 801.380066,287.064270 
M544.500244,32.480633 
	C536.567505,32.480633 528.634705,32.480633 520.671631,32.480633 
	C520.671631,101.813698 520.671631,170.401138 520.671631,239.191055 
	C565.013489,239.191055 609.067200,239.191055 653.259521,239.191055 
	C653.259521,224.775314 653.259521,210.689423 653.259521,196.075073 
	C625.085754,196.075073 597.200745,196.075073 568.872986,196.075073 
	C568.872986,141.311874 568.872986,87.077507 568.872986,32.480801 
	C560.784790,32.480801 553.142517,32.480801 544.500244,32.480633 
z"/>
<path fill="#323232" opacity="1.000000" stroke="none" 
	d="
M347.367157,411.093903 
	C347.367188,435.210236 347.367188,458.840820 347.367188,482.734802 
	C331.163055,482.734802 315.259705,482.734802 299.126801,482.734802 
	C299.126801,413.871582 299.126801,345.152313 299.126801,276.089508 
	C300.624207,276.002777 302.061127,275.847504 303.498108,275.846863 
	C335.150116,275.833099 366.802155,275.824585 398.454163,275.842957 
	C409.887115,275.849579 421.058929,277.505188 431.470154,282.407318 
	C447.533081,289.970612 456.857758,302.844666 460.162750,320.169556 
	C463.727081,338.853729 462.719666,356.999359 452.914520,373.821075 
	C450.514832,377.938049 447.397064,381.751465 444.069092,385.179932 
	C440.758759,388.590332 436.768616,391.340881 432.714661,394.678711 
	C444.440765,423.772888 456.268860,453.120117 468.236938,482.814697 
	C450.915497,482.814697 434.145782,482.814697 416.978333,482.814697 
	C411.390289,468.074249 405.738373,453.192505 400.107513,438.302795 
	C396.054810,427.586334 392.102142,416.830872 387.900665,406.173309 
	C387.383301,404.860962 385.620880,403.159882 384.407593,403.137360 
	C372.264832,402.911804 360.116272,403.000366 347.367126,403.000366 
	C347.367126,405.714325 347.367126,408.161224 347.367157,411.093903 
M347.356659,349.472260 
	C347.356659,353.241699 347.356659,357.011108 347.356659,360.959045 
	C363.143860,360.959045 378.291382,361.276947 393.418701,360.860107 
	C405.901978,360.516174 413.376678,353.026489 413.923126,341.500549 
	C414.509460,329.133423 408.495514,320.784271 395.636841,319.873596 
	C379.798431,318.751862 363.820099,319.605652 347.356903,319.605652 
	C347.356903,329.258881 347.356903,338.870300 347.356659,349.472260 
z"/>
<path fill="#333333" opacity="1.000000" stroke="none" 
	d="
M623.738892,368.040894 
	C623.738892,379.164886 623.738892,389.796173 623.738892,400.949280 
	C595.631714,400.949280 567.908569,400.949280 539.995667,400.949280 
	C539.995667,413.913666 539.995667,426.353699 539.995667,439.458374 
	C570.789429,439.458374 601.489075,439.458374 632.429810,439.458374 
	C632.429810,454.216034 632.429810,468.311127 632.429810,482.703796 
	C585.403259,482.703796 538.507446,482.703796 491.335205,482.703796 
	C491.335205,413.934723 491.335205,345.201080 491.335205,276.150879 
	C538.278625,276.150879 585.179199,276.150879 632.380005,276.150879 
	C632.380005,290.266510 632.380005,304.352631 632.380005,319.064880 
	C601.647583,319.064880 570.947754,319.064880 540.080200,319.064880 
	C540.080200,332.257904 540.080200,344.825653 540.080200,357.802856 
	C567.955444,357.802856 595.554932,357.802856 623.738892,357.802856 
	C623.738892,361.315887 623.738892,364.432068 623.738892,368.040894 
z"/>
<path fill="#333333" opacity="1.000000" stroke="none" 
	d="
M116.402267,82.475815 
	C132.091080,49.919044 158.331223,33.094776 193.263245,28.945211 
	C212.522736,26.657379 231.523605,27.807779 249.801682,34.876293 
	C278.399536,45.935692 294.455017,67.245331 300.011719,96.984535 
	C300.312164,98.592606 300.542450,100.213776 300.917145,102.515068 
	C295.684631,102.515068 290.761078,102.515137 285.837555,102.515060 
	C274.338104,102.514877 262.836761,102.613556 251.341705,102.388451 
	C249.914703,102.360504 247.515518,100.825851 247.262405,99.630379 
	C243.021790,79.601318 226.408234,71.218987 208.362473,71.590767 
	C182.196228,72.129860 165.692291,85.675179 159.636978,112.317535 
	C154.644241,134.284851 155.562912,156.039764 166.145828,176.532913 
	C179.028183,201.478760 210.294495,206.469589 230.945984,195.294617 
	C239.830505,190.487000 244.600754,182.503937 247.122162,172.902954 
	C247.500504,171.462311 249.309753,169.340897 250.482254,169.324387 
	C267.127014,169.090042 283.776062,169.164749 300.972961,169.164749 
	C296.890930,197.959183 284.630554,221.728943 257.787567,233.497269 
	C216.806046,251.464127 176.529556,249.291718 140.208282,220.846130 
	C122.907761,207.296951 113.746941,188.087616 109.172096,166.928711 
	C102.973930,138.261826 104.205154,110.035583 116.402267,82.475815 
z"/>
<path fill="#333333" opacity="1.000000" stroke="none" 
	d="
M695.775574,53.767456 
	C711.032898,39.526638 728.980347,31.920654 749.136841,29.282038 
	C769.726501,26.586723 790.094482,27.402767 809.567322,35.268127 
	C838.348938,46.893429 854.065796,68.915199 859.017944,99.131622 
	C859.125549,99.788193 859.206116,100.456169 859.210876,101.119453 
	C859.213013,101.421196 858.999023,101.724487 858.790039,102.269852 
	C841.446106,102.269852 824.015320,102.269852 806.391235,102.269852 
	C803.440308,85.211197 793.335327,74.960091 776.530518,72.384064 
	C757.413940,69.453644 740.371216,73.627113 728.120850,90.065414 
	C721.277954,99.247681 717.866089,109.840424 716.611938,121.046135 
	C714.664490,138.445663 715.520020,155.576813 722.457642,172.048935 
	C734.093994,199.677338 764.714905,205.837387 786.026123,197.057938 
	C795.782837,193.038513 801.728943,185.623779 804.882874,175.767227 
	C805.532776,173.735962 805.977844,171.639099 806.564697,169.391022 
	C824.097595,169.391022 841.531616,169.391022 859.436340,169.391022 
	C857.224670,188.018906 850.584290,204.303879 837.878357,217.911438 
	C824.590088,232.142426 807.813782,239.528168 788.877380,242.461121 
	C767.135010,245.828659 745.645325,245.007858 724.982544,236.849075 
	C699.373352,226.737122 681.777771,208.263443 672.556030,182.545441 
	C660.635559,149.300842 661.026489,115.993118 674.986816,83.218903 
	C679.747742,72.041794 686.780029,62.416805 695.775574,53.767456 
z"/>
<path fill="#333333" opacity="1.000000" stroke="none" 
	d="
M364.582214,77.597267 
	C369.470093,63.405949 374.130768,49.552879 379.004883,35.775303 
	C379.477051,34.440571 381.258636,32.643700 382.451843,32.628887 
	C399.100677,32.422203 415.752899,32.488819 432.702026,32.488819 
	C456.246674,101.269218 479.739441,169.898148 503.413330,239.056091 
	C486.180756,239.056091 469.326660,239.056091 451.935333,239.056091 
	C448.762115,228.655045 445.279877,217.927933 442.294342,207.064316 
	C441.313232,203.494247 439.874115,202.390244 436.201294,202.425049 
	C416.377533,202.612991 396.549652,202.635666 376.726624,202.410736 
	C372.786987,202.366043 371.268341,203.691711 370.261871,207.337463 
	C367.304871,218.048798 363.956573,228.652115 360.756104,239.315735 
	C343.674896,239.315735 326.891632,239.315735 309.247620,239.315735 
	C327.736420,185.237274 346.075439,131.596909 364.582214,77.597267 
M391.211670,137.722229 
	C389.100159,145.034943 386.988647,152.347641 384.790649,159.959961 
	C399.305481,159.959961 413.409424,159.959961 427.979553,159.959961 
	C420.852905,135.715271 413.803833,111.734589 406.391541,86.518181 
	C401.174255,104.195175 396.337860,120.581772 391.211670,137.722229 
z"/>
<path fill="#333333" opacity="1.000000" stroke="none" 
	d="
M123.043427,483.000885 
	C119.600662,483.000885 116.649857,483.000885 113.495102,483.000885 
	C113.495102,413.786102 113.495102,345.065063 113.495102,276.116638 
	C114.676682,276.009308 115.635963,275.845123 116.595062,275.846161 
	C150.082611,275.882568 183.571655,275.767609 217.056961,276.066711 
	C230.413223,276.186005 243.202820,279.438690 254.276932,287.219238 
	C267.870819,296.770142 273.811859,310.822327 275.663513,326.794922 
	C277.497650,342.616425 276.398804,358.139679 268.378174,372.356140 
	C256.836212,392.814087 238.277985,401.921509 215.624451,402.855469 
	C198.003555,403.581940 180.328751,403.000793 162.227539,403.000793 
	C162.227539,429.535858 162.227539,455.927002 162.227539,483.000885 
	C149.037766,483.000885 136.286560,483.000885 123.043427,483.000885 
M194.497101,361.000824 
	C198.822723,360.994934 203.155197,361.144287 207.472672,360.953796 
	C220.082916,360.397308 227.583359,353.460754 228.251465,341.920837 
	C228.999420,329.001343 223.212860,321.808044 210.067902,319.653717 
	C206.977615,319.147247 203.778244,319.195221 200.628311,319.183380 
	C187.870926,319.135315 175.113266,319.163391 162.286819,319.163391 
	C162.286819,333.396454 162.286819,347.091583 162.286819,361.000824 
	C172.904160,361.000824 183.201141,361.000824 194.497101,361.000824 
z"/>
<path fill="#323232" opacity="1.000000" stroke="none" 
	d="
M801.667664,287.282806 
	C812.074524,294.911621 818.128113,305.003143 821.050232,317.019135 
	C825.079895,333.589508 824.999817,350.100189 818.648621,366.099701 
	C809.863586,388.230225 787.515625,402.852020 762.854553,402.982971 
	C746.693481,403.068756 730.531555,402.999207 714.370056,402.999237 
	C712.753296,402.999237 711.136536,402.999268 709.242737,402.999268 
	C709.242737,429.763672 709.242737,456.039062 709.242737,482.656372 
	C693.069885,482.656372 677.176086,482.656372 660.963501,482.656372 
	C660.963501,413.975372 660.963501,345.256226 660.963501,276.272095 
	C661.575867,276.150696 662.351562,275.862030 663.127014,275.862671 
	C697.115540,275.891785 731.106323,275.734131 765.091370,276.106110 
	C778.073608,276.248199 790.388184,279.755463 801.667664,287.282806 
M769.304382,355.864471 
	C776.211365,349.165375 776.875671,341.004913 774.403809,332.370300 
	C772.034119,324.092529 765.552368,320.292084 757.610413,319.787262 
	C746.515198,319.082001 735.359985,319.300995 724.229980,319.168396 
	C719.303955,319.109680 714.376526,319.158508 709.479370,319.158508 
	C709.479370,333.487823 709.479370,347.172394 709.479370,360.979126 
	C724.822449,360.979126 739.801331,361.344849 754.743408,360.764435 
	C759.450989,360.581573 764.059998,357.862427 769.304382,355.864471 
z"/>
<path fill="#343434" opacity="1.000000" stroke="none" 
	d="
M545.000244,32.480717 
	C553.142517,32.480801 560.784790,32.480801 568.872986,32.480801 
	C568.872986,87.077507 568.872986,141.311874 568.872986,196.075073 
	C597.200745,196.075073 625.085754,196.075073 653.259521,196.075073 
	C653.259521,210.689423 653.259521,224.775314 653.259521,239.191055 
	C609.067200,239.191055 565.013489,239.191055 520.671631,239.191055 
	C520.671631,170.401138 520.671631,101.813698 520.671631,32.480633 
	C528.634705,32.480633 536.567505,32.480633 545.000244,32.480717 
z"/>
<path fill="#FCFCFC" opacity="1.000000" stroke="none" 
	d="
M347.356781,348.976990 
	C347.356903,338.870300 347.356903,329.258881 347.356903,319.605652 
	C363.820099,319.605652 379.798431,318.751862 395.636841,319.873596 
	C408.495514,320.784271 414.509460,329.133423 413.923126,341.500549 
	C413.376678,353.026489 405.901978,360.516174 393.418701,360.860107 
	C378.291382,361.276947 363.143860,360.959045 347.356659,360.959045 
	C347.356659,357.011108 347.356659,353.241699 347.356781,348.976990 
z"/>
<path fill="#FDFDFD" opacity="1.000000" stroke="none" 
	d="
M391.356567,137.345306 
	C396.337860,120.581772 401.174255,104.195175 406.391541,86.518181 
	C413.803833,111.734589 420.852905,135.715271 427.979553,159.959961 
	C413.409424,159.959961 399.305481,159.959961 384.790649,159.959961 
	C386.988647,152.347641 389.100159,145.034943 391.356567,137.345306 
z"/>
<path fill="#FEFEFE" opacity="1.000000" stroke="none" 
	d="
M193.997620,361.000824 
	C183.201141,361.000824 172.904160,361.000824 162.286819,361.000824 
	C162.286819,347.091583 162.286819,333.396454 162.286819,319.163391 
	C175.113266,319.163391 187.870926,319.135315 200.628311,319.183380 
	C203.778244,319.195221 206.977615,319.147247 210.067902,319.653717 
	C223.212860,321.808044 228.999420,329.001343 228.251465,341.920837 
	C227.583359,353.460754 220.082916,360.397308 207.472672,360.953796 
	C203.155197,361.144287 198.822723,360.994934 193.997620,361.000824 
z"/>
<path fill="#FDFDFD" opacity="1.000000" stroke="none" 
	d="
M769.009277,356.084290 
	C764.059998,357.862427 759.450989,360.581573 754.743408,360.764435 
	C739.801331,361.344849 724.822449,360.979126 709.479370,360.979126 
	C709.479370,347.172394 709.479370,333.487823 709.479370,319.158508 
	C714.376526,319.158508 719.303955,319.109680 724.229980,319.168396 
	C735.359985,319.300995 746.515198,319.082001 757.610413,319.787262 
	C765.552368,320.292084 772.034119,324.092529 774.403809,332.370300 
	C776.875671,341.004913 776.211365,349.165375 769.009277,356.084290 
z"/>
</svg>